<svg id="a56ada72-3032-4c23-8668-03e79ccdb8f8" data-name="Layer 1" xmlns="http://www.w3.org/2000/svg" viewBox="0 0 24 24"><title>behance_icon</title><path d="M8.84,10.83h-2V9H8.66C10.54,9,10.3,10.83,8.84,10.83Zm5.79,1.06h2.62A1.31,1.31,0,0,0,14.63,11.89Zm-5.9.4H6.88v2H8.7C10.48,14.23,10.37,12.29,8.73,12.29ZM24,12A12,12,0,1,1,12,0,12,12,0,0,1,24,12Zm-13.36-.73c1.67-.86,1.61-4-1.58-4H5V16H8.77C12.73,16,12.66,12,10.64,11.27ZM14,8.1h4V7.23H14Zm4.94,3.69c-.54-3.5-6.05-3.71-6.05.88s5.18,3.81,5.95,1.56H17A1.41,1.41,0,0,1,14.59,13H19A7.11,7.11,0,0,0,18.94,11.79Z" transform="translate(0 0)" fill="#2a2a2a"/></svg>